<svg width="24" height="25" viewBox="0 0 24 25" fill="none" xmlns="http://www.w3.org/2000/svg">
<path d="M12 22.5C17.5228 22.5 22 18.0228 22 12.5C22 6.97715 17.5228 2.5 12 2.5C6.47715 2.5 2 6.97715 2 12.5C2 18.0228 6.47715 22.5 12 22.5Z" stroke="white" stroke-width="2" stroke-linecap="round" stroke-linejoin="round"/>
<path d="M12 17.5H12.01" stroke="white" stroke-width="2" stroke-linecap="round" stroke-linejoin="round"/>
<path d="M9.09 9.49999C9.3251 8.83166 9.78915 8.2681 10.4 7.90912C11.0108 7.55015 11.7289 7.41893 12.4272 7.5387C13.1255 7.65848 13.7588 8.02151 14.2151 8.56352C14.6713 9.10552 14.9211 9.79151 14.92 10.5C14.92 12.5 11.92 13.5 11.92 13.5" stroke="white" stroke-width="2" stroke-linecap="round" stroke-linejoin="round"/>
</svg>
