<svg width="407" height="407" viewBox="0 0 407 407" fill="none" xmlns="http://www.w3.org/2000/svg">
<path d="M407 311.273H0V311.477H407V311.273Z" fill="#EBEBEB"/>
<path d="M331.396 316.817H271.331V317.02H331.396V316.817Z" fill="#EBEBEB"/>
<path d="M91.4203 318.184H84.3467V318.388H91.4203V318.184Z" fill="#EBEBEB"/>
<path d="M347.83 324.371H332.209V324.574H347.83V324.371Z" fill="#EBEBEB"/>
<path d="M202.417 321.619H162.8V321.823H202.417V321.619Z" fill="#EBEBEB"/>
<path d="M155.555 321.619H135.71V321.823H155.555V321.619Z" fill="#EBEBEB"/>
<path d="M69.6872 318.184H42.7031V318.388H69.6872V318.184Z" fill="#EBEBEB"/>
<path d="M192.919 274.969H35.7433C34.512 274.967 33.3319 274.476 32.462 273.605C31.5921 272.733 31.1035 271.552 31.1035 270.321V49.377C31.1142 48.1528 31.6075 46.9822 32.4763 46.1196C33.345 45.2569 34.519 44.7719 35.7433 44.7698H192.919C194.151 44.7698 195.334 45.2595 196.205 46.1311C197.077 47.0028 197.567 48.185 197.567 49.4177V270.321C197.567 271.554 197.077 272.736 196.205 273.608C195.334 274.479 194.151 274.969 192.919 274.969ZM35.7433 44.9326C34.566 44.9347 33.4376 45.4039 32.6059 46.2372C31.7741 47.0705 31.307 48.1997 31.307 49.377V270.321C31.307 271.498 31.7741 272.628 32.6059 273.461C33.4376 274.294 34.566 274.763 35.7433 274.765H192.919C194.097 274.763 195.226 274.294 196.059 273.461C196.892 272.628 197.361 271.499 197.363 270.321V49.377C197.361 48.1989 196.892 47.0697 196.059 46.2367C195.226 45.4037 194.097 44.9347 192.919 44.9326H35.7433Z" fill="#EBEBEB"/>
<path d="M368.994 274.969H211.811C210.579 274.967 209.398 274.476 208.527 273.605C207.656 272.734 207.165 271.553 207.163 270.321V49.377C207.176 48.152 207.671 46.9815 208.541 46.1191C209.411 45.2566 210.586 44.7718 211.811 44.7698H368.994C370.217 44.774 371.389 45.26 372.256 46.1224C373.123 46.9848 373.615 48.1542 373.626 49.377V270.321C373.626 271.551 373.139 272.731 372.27 273.602C371.402 274.473 370.224 274.965 368.994 274.969ZM211.811 44.9326C210.633 44.9347 209.504 45.4037 208.671 46.2367C207.838 47.0697 207.369 48.1989 207.367 49.377V270.321C207.369 271.499 207.838 272.628 208.671 273.461C209.504 274.294 210.633 274.763 211.811 274.765H368.994C370.173 274.763 371.302 274.294 372.135 273.461C372.968 272.628 373.437 271.499 373.439 270.321V49.377C373.437 48.1989 372.968 47.0697 372.135 46.2367C371.302 45.4037 370.173 44.9347 368.994 44.9326H211.811Z" fill="#EBEBEB"/>
<path d="M267.603 308.929H141.628V311.265H267.603V308.929Z" fill="#F0F0F0"/>
<path d="M315.89 214.285C315.89 214.285 326.317 228.937 341.604 216.426C355.8 204.827 341.848 176.76 341.848 176.76C341.848 176.76 358.348 181.945 361.01 160.187C363.671 138.429 340.253 143.956 340.253 143.956C348.596 127.366 339.032 126.862 331.893 128.327C334.058 124.257 334.742 119.259 329.589 115.051C317.794 105.421 309.752 116.679 309.752 116.679C309.752 116.679 303.615 95.5798 289.093 107.896V225.681C307.937 241.644 315.89 214.285 315.89 214.285Z" fill="#F5F5F5"/>
<path d="M294.53 99.0801H53.9932V311.274H294.53V99.0801Z" fill="#FAFAFA"/>
<path d="M277.225 66.113H71.2988L53.9932 99.08H294.53L277.225 66.113Z" fill="#F0F0F0"/>
<path d="M258.404 289.491V267.7H244.273V245.917H141.392V267.7H155.523V289.491H169.662V311.273H272.535V289.491H258.404Z" fill="#F5F5F5"/>
<path d="M141.392 245.917V267.7H155.523V289.491H169.663V311.273H53.9932V245.917H141.392Z" fill="#EBEBEB"/>
<path d="M244.273 265.364H141.392V267.7H244.273V265.364Z" fill="#F0F0F0"/>
<path d="M258.405 287.146H155.523V289.483H258.405V287.146Z" fill="#F0F0F0"/>
<path d="M134.311 118.299H66.6592V245.917H134.311V118.299Z" fill="#F0F0F0"/>
<path d="M65.3893 245.917H66.6592L66.6592 118.298H65.3893L65.3893 245.917Z" fill="#E6E6E6"/>
<path d="M124.201 185.861C126.273 185.861 127.953 184.18 127.953 182.108C127.953 180.036 126.273 178.355 124.201 178.355C122.128 178.355 120.448 180.036 120.448 182.108C120.448 184.18 122.128 185.861 124.201 185.861Z" fill="#FAFAFA"/>
<path d="M256.133 118.299H157.794V216.434H256.133V118.299Z" fill="#F5F5F5"/>
<path d="M252.038 211.827V122.906H161.904V211.827H252.038Z" fill="white"/>
<path d="M161.896 122.914V211.827H164.55C164.55 211.827 176.711 182.727 180.098 122.906L161.896 122.914Z" fill="#FAFAFA"/>
<path d="M252.039 122.914V211.827H249.377C249.377 211.827 237.224 182.726 233.838 122.914H252.039Z" fill="#FAFAFA"/>
<path d="M254.44 164.273H159.495V170.46H254.44V164.273Z" fill="#F5F5F5"/>
<path d="M210.061 214.839V119.894H203.874V214.839H210.061Z" fill="#F5F5F5"/>
<path d="M203.499 348.034C290.664 348.034 361.326 343.908 361.326 338.819C361.326 333.73 290.664 329.605 203.499 329.605C116.334 329.605 45.6729 333.73 45.6729 338.819C45.6729 343.908 116.334 348.034 203.499 348.034Z" fill="#F5F5F5"/>
<path d="M150.257 338.819H124.607C123.64 338.819 122.713 338.435 122.029 337.751C121.345 337.067 120.961 336.14 120.961 335.173V290.476H153.903V335.181C153.901 336.147 153.516 337.072 152.832 337.754C152.149 338.436 151.222 338.819 150.257 338.819Z" fill="#1CC079"/>
<path opacity="0.2" d="M153.903 290.476H120.969V309.873L153.903 302.735V290.476Z" fill="black"/>
<path d="M168.075 231.835C168.075 219.53 172.964 207.728 181.665 199.027C190.366 190.325 202.168 185.437 214.473 185.437C226.779 185.437 238.58 190.325 247.282 199.027C255.983 207.728 260.871 219.53 260.871 231.835V290.443H168.075V231.835Z" fill="#1CC079"/>
<path opacity="0.3" d="M168.075 231.835C168.075 219.53 172.964 207.728 181.665 199.027C190.366 190.325 202.168 185.437 214.473 185.437C226.779 185.437 238.58 190.325 247.282 199.027C255.983 207.728 260.871 219.53 260.871 231.835V290.443H168.075V231.835Z" fill="black"/>
<path d="M58.8447 231.827V284.696C58.8447 285.456 58.9945 286.208 59.2854 286.91C59.5764 287.612 60.0028 288.249 60.5404 288.786C61.0779 289.323 61.716 289.748 62.4181 290.038C63.1202 290.328 63.8726 290.477 64.6323 290.476H168.075V231.827C168.075 219.522 172.964 207.72 181.665 199.019C190.366 190.317 202.168 185.429 214.473 185.429H105.243C92.9372 185.429 81.1357 190.317 72.4344 199.019C63.7331 207.72 58.8447 219.522 58.8447 231.827Z" fill="#1CC079"/>
<path opacity="0.2" d="M58.8533 273.17H168.084V256.89H58.8533V273.17Z" fill="black"/>
<path opacity="0.2" d="M58.8533 251.835H168.084V235.555H58.8533V251.835Z" fill="black"/>
<path d="M174.922 182.58H161.629V183.394H174.922V182.58Z" fill="#1CC079"/>
<path d="M154.661 182.58H147.514V183.394H154.661V182.58Z" fill="#1CC079"/>
<path d="M112.268 247.081V181.147C112.268 180.884 112.21 180.625 112.1 180.386C111.989 180.148 111.828 179.936 111.627 179.767C111.426 179.597 111.191 179.473 110.938 179.403C110.684 179.334 110.418 179.321 110.159 179.365L87.1475 183.15V192.698H104.738V246.935C102.962 247.751 101.515 249.145 100.634 250.89C99.7525 252.635 99.4895 254.627 99.8875 256.541C100.286 258.455 101.321 260.177 102.825 261.426C104.328 262.675 106.211 263.377 108.166 263.418C110.12 263.458 112.03 262.834 113.584 261.647C115.138 260.461 116.243 258.783 116.719 256.887C117.196 254.991 117.015 252.99 116.206 251.21C115.397 249.43 114.009 247.978 112.268 247.089V247.081Z" fill="#263238"/>
<path d="M174.677 297.11H293.716C294.585 297.112 295.419 296.771 296.038 296.161C296.657 295.552 297.01 294.722 297.021 293.854C297.021 292.977 296.673 292.137 296.053 291.517C295.433 290.897 294.593 290.549 293.716 290.549H168.075C168.086 292.293 168.786 293.961 170.023 295.191C171.26 296.42 172.933 297.11 174.677 297.11Z" fill="#1CC079"/>
<path opacity="0.2" d="M174.677 297.11H223.321C224.19 297.112 225.025 296.771 225.643 296.161C226.262 295.552 226.616 294.722 226.626 293.854C226.626 292.977 226.278 292.137 225.658 291.517C225.038 290.897 224.198 290.549 223.321 290.549H168.075C168.086 292.293 168.786 293.961 170.023 295.191C171.26 296.42 172.933 297.11 174.677 297.11Z" fill="black"/>
<path d="M288.546 331.607L281.66 331.664L279.779 315.718L286.674 315.661L288.546 331.607Z" fill="#FF8B7B"/>
<path opacity="0.2" d="M279.779 315.726L280.748 323.947L287.643 323.882L286.674 315.669L279.779 315.726Z" fill="black"/>
<path d="M344.517 314.7L338.591 318.217L328.945 305.38L334.871 301.863L344.517 314.7Z" fill="#FF8B7B"/>
<path opacity="0.2" d="M328.953 305.38L333.919 311.998L339.853 308.481L334.879 301.863L328.953 305.38Z" fill="black"/>
<path d="M281.644 330.866L289.173 330.801C289.312 330.802 289.448 330.848 289.559 330.931C289.67 331.015 289.752 331.132 289.792 331.265L291.615 337.378C291.662 337.52 291.674 337.671 291.651 337.819C291.627 337.966 291.569 338.106 291.48 338.226C291.392 338.346 291.276 338.444 291.142 338.51C291.009 338.576 290.861 338.61 290.712 338.608C287.993 338.608 284.061 338.461 280.642 338.494C276.654 338.494 274.879 338.778 270.199 338.819C267.366 338.819 266.373 335.986 267.537 335.718C272.836 334.497 275.579 334.334 280.024 331.42C280.499 331.083 281.062 330.891 281.644 330.866Z" fill="#263238"/>
<path d="M278.803 332.112C279.545 332.098 280.284 332.008 281.009 331.843C281.042 331.838 281.072 331.821 281.094 331.796C281.117 331.77 281.129 331.738 281.131 331.705C281.134 331.672 281.128 331.639 281.112 331.609C281.096 331.58 281.071 331.557 281.041 331.542C280.716 331.379 277.785 329.995 277.028 330.484C276.955 330.531 276.896 330.596 276.856 330.673C276.816 330.75 276.797 330.837 276.8 330.923C276.792 331.079 276.82 331.233 276.884 331.375C276.948 331.517 277.045 331.641 277.167 331.737C277.657 332.036 278.231 332.167 278.803 332.112ZM280.431 331.623C278.941 331.884 277.81 331.827 277.354 331.461C277.274 331.396 277.211 331.314 277.168 331.221C277.126 331.128 277.106 331.026 277.11 330.923C277.107 330.892 277.112 330.861 277.125 330.832C277.137 330.804 277.158 330.779 277.183 330.761C277.631 330.484 279.267 331.07 280.447 331.607L280.431 331.623Z" fill="#1CC079"/>
<path d="M280.976 331.835C281.009 331.842 281.042 331.842 281.074 331.835C281.098 331.818 281.116 331.794 281.126 331.766C281.136 331.739 281.138 331.709 281.131 331.68C281.131 331.55 280.594 328.587 278.949 328.774C278.518 328.823 278.396 329.035 278.372 329.214C278.258 330.028 280 331.477 280.911 331.851L280.976 331.835ZM279.088 329.059C280.073 329.059 280.569 330.687 280.716 331.371C279.812 330.858 278.599 329.686 278.665 329.23C278.665 329.23 278.665 329.092 278.958 329.059H279.088Z" fill="#1CC079"/>
<path d="M291.64 141.335C290.736 146.569 289.589 151.591 288.197 156.662C287.502 159.191 286.734 161.712 285.893 164.224C285.453 165.486 285.038 166.74 284.542 167.993C284.306 168.62 284.07 169.247 283.801 169.874L283.418 170.818L283.223 171.282L283.117 171.534L282.971 171.852C282.303 173.291 281.484 174.655 280.529 175.922C279.715 177.069 278.828 178.127 277.957 179.178C276.215 181.229 274.399 183.134 272.56 185.006C268.886 188.696 265.022 192.193 260.985 195.482L257.313 191.827C260.447 187.847 263.606 183.825 266.658 179.845C268.18 177.859 269.662 175.84 271.046 173.846C271.738 172.853 272.397 171.852 272.975 170.875C273.498 170.043 273.945 169.166 274.31 168.254C274.359 168.156 274.473 167.765 274.562 167.505L274.839 166.642C275.034 166.08 275.205 165.494 275.376 164.908C275.726 163.744 276.052 162.556 276.386 161.375C277.02 158.99 277.615 156.581 278.193 154.155C279.316 149.271 280.399 144.338 281.375 139.503L291.64 141.335Z" fill="#FF8B7B"/>
<path d="M294.073 142.287C293.658 150.15 289.849 161.188 289.849 161.188L279.153 157.118L274.749 155.49C275.329 150.284 276.565 145.172 278.428 140.276C281.684 131.892 289.23 129.849 293.08 136.019C293.976 137.411 294.212 139.674 294.073 142.287Z" fill="#1CC079"/>
<path opacity="0.2" d="M294.074 142.287C293.659 150.15 289.849 161.188 289.849 161.188L279.153 157.118C279.79 154.344 280.622 151.618 281.644 148.962C284.314 141.978 290.012 139.397 294.074 142.287Z" fill="black"/>
<path d="M259.047 191.054L251.786 192.242L251.729 199.365C251.729 199.365 258.697 198.388 261.424 195.051L259.047 191.054Z" fill="#FF8B7B"/>
<path d="M245.062 196.369L245.217 201.05L251.729 199.365L251.778 192.242L245.062 196.369Z" fill="#FF8B7B"/>
<path d="M286.43 192.242C286.43 192.242 276.084 229.906 273.341 250.989C270.492 272.918 277.216 319.943 277.216 319.943L289.662 319.674C289.662 319.674 290.598 271.737 294.668 250.175C299.129 226.674 307.627 191.786 307.627 191.786L286.43 192.242Z" fill="#263238"/>
<path d="M291.192 320.236L276.556 320.529L275.481 315.669L291.004 315.628L291.192 320.236Z" fill="#1CC079"/>
<path opacity="0.4" d="M291.192 320.236L276.556 320.529L275.481 315.669L291.004 315.628L291.192 320.236Z" fill="white"/>
<path d="M338.176 317.533L344.648 313.691C344.773 313.611 344.922 313.576 345.07 313.592C345.219 313.608 345.357 313.675 345.462 313.781L350.11 318.144C350.222 318.243 350.31 318.367 350.364 318.507C350.419 318.647 350.439 318.798 350.423 318.947C350.407 319.096 350.356 319.239 350.273 319.365C350.19 319.49 350.078 319.593 349.947 319.666C347.586 321.017 344.127 322.922 341.188 324.623C337.761 326.666 336.304 327.773 332.324 330.158C329.882 331.607 327.594 329.646 328.465 328.823C332.429 325.095 334.717 323.573 337.094 318.827C337.323 318.301 337.699 317.852 338.176 317.533Z" fill="#263238"/>
<path d="M336.337 320.024C336.969 319.635 337.563 319.188 338.111 318.689C338.135 318.665 338.152 318.634 338.159 318.601C338.166 318.568 338.164 318.533 338.152 318.502C338.14 318.47 338.117 318.443 338.087 318.425C338.058 318.407 338.023 318.4 337.989 318.404C337.623 318.404 334.424 318.681 333.992 319.511C333.946 319.586 333.922 319.672 333.922 319.759C333.922 319.847 333.946 319.933 333.992 320.008C334.064 320.14 334.165 320.253 334.288 320.339C334.411 320.425 334.552 320.482 334.701 320.504C335.284 320.527 335.859 320.358 336.337 320.024ZM337.517 318.77C336.361 319.747 335.352 320.268 334.774 320.178C334.674 320.164 334.578 320.126 334.495 320.068C334.411 320.01 334.343 319.934 334.294 319.845C334.276 319.817 334.267 319.784 334.267 319.751C334.267 319.718 334.276 319.686 334.294 319.658C334.554 319.218 336.223 318.9 337.517 318.77Z" fill="#1CC079"/>
<path d="M338.086 318.705C338.114 318.684 338.136 318.656 338.151 318.624C338.167 318.6 338.176 318.572 338.176 318.543C338.176 318.514 338.167 318.485 338.151 318.461C338.07 318.364 336.124 316.019 334.806 317.045C334.456 317.305 334.456 317.558 334.521 317.72C334.814 318.445 337.093 318.844 338.045 318.73L338.086 318.705ZM335.058 317.256C335.913 316.76 337.15 317.9 337.655 318.42C336.604 318.42 334.976 318.03 334.797 317.606C334.797 317.606 334.749 317.484 334.968 317.322L335.058 317.256Z" fill="#1CC079"/>
<path d="M299.3 191.965C299.3 191.965 299.3 228.97 300.268 250.207C301.262 272.299 328.856 310.313 328.856 310.313L339.479 303.801C339.479 303.801 320.838 267.627 321.123 245.689C321.432 221.766 323.288 191.428 323.288 191.428L299.3 191.965Z" fill="#263238"/>
<path d="M340.846 303.792L329.084 310.972L326.146 308.05L339.088 299.421L340.846 303.792Z" fill="#1CC079"/>
<path opacity="0.4" d="M340.846 303.792L329.084 310.972L326.146 308.05L339.088 299.421L340.846 303.792Z" fill="white"/>
<path d="M285.575 132.682C285.575 132.682 277.883 153.667 286.43 192.25L323.288 191.436C323.418 185.779 319.275 158.258 324.167 131.485C320.064 130.799 315.92 130.383 311.762 130.24C306.539 130.044 301.31 130.155 296.1 130.574C292.543 131.001 289.024 131.706 285.575 132.682Z" fill="#1CC079"/>
<path d="M309.865 112.6C308.986 117.655 308.196 126.919 311.794 130.207C311.794 130.207 310.524 135.376 301.163 135.547C293.683 135.685 296.133 130.541 296.133 130.541C301.725 129.076 301.489 124.908 300.423 121.017L309.865 112.6Z" fill="#FF8B7B"/>
<path opacity="0.2" d="M306.014 116.027L300.43 121.009C300.69 121.914 300.87 122.84 300.967 123.777C303.108 123.426 306.014 121.001 306.193 118.746C306.3 117.836 306.239 116.915 306.014 116.027Z" fill="black"/>
<path opacity="0.2" d="M315.946 144.835L322.092 149.263C321.823 153.976 321.742 158.559 321.782 162.857C318.013 159.063 315.905 152.087 315.946 144.835Z" fill="black"/>
<path d="M310.452 127.692C310.452 127.692 308.685 131.941 300.439 135.555C301.766 136.088 302.966 136.892 303.964 137.915C304.962 138.938 305.736 140.158 306.235 141.497C306.235 141.497 312.234 135.799 313.838 130.101L310.452 127.692Z" fill="white"/>
<path d="M294.277 139.959C294.277 139.959 296.8 136.296 300.439 135.555C299.161 133.992 297.842 130.525 299.063 128.88C297.991 129.163 296.951 129.559 295.962 130.061C295.962 130.061 291.013 133.032 294.277 139.959Z" fill="white"/>
<path d="M293.553 98.1273C290.191 99.5681 288.522 108.62 292.902 110.59C297.281 112.56 299.918 95.4085 293.553 98.1273Z" fill="#263238"/>
<path d="M310.305 105.006C310.028 111.843 310.215 115.856 306.845 119.43C301.774 124.81 293.284 121.872 291.509 115.091C289.881 108.986 290.63 98.8113 297.248 95.9786C298.705 95.3408 300.301 95.0862 301.884 95.2389C303.467 95.3916 304.985 95.9466 306.294 96.8512C307.602 97.7558 308.657 98.9798 309.359 100.407C310.061 101.834 310.387 103.417 310.305 105.006Z" fill="#FF8B7B"/>
<path d="M299.991 107.13C299.991 107.684 299.723 108.14 299.356 108.148C298.99 108.156 298.689 107.708 298.681 107.155C298.673 106.601 298.949 106.145 299.316 106.137C299.682 106.129 299.983 106.569 299.991 107.13Z" fill="#263238"/>
<path d="M293.706 107.261C293.706 107.814 293.438 108.27 293.071 108.278C292.705 108.286 292.404 107.847 292.396 107.285C292.388 106.723 292.664 106.276 293.031 106.267C293.397 106.259 293.698 106.707 293.706 107.261Z" fill="#263238"/>
<path d="M295.718 107.496C295.09 109.209 294.23 110.828 293.162 112.307C293.547 112.57 293.985 112.745 294.444 112.821C294.904 112.897 295.375 112.872 295.824 112.747L295.718 107.496Z" fill="#FF5652"/>
<path d="M297.477 114.245C298.224 114.251 298.963 114.077 299.629 113.737C300.295 113.396 300.869 112.901 301.302 112.291C301.314 112.273 301.321 112.253 301.325 112.232C301.328 112.211 301.327 112.189 301.322 112.169C301.316 112.148 301.307 112.129 301.294 112.112C301.281 112.095 301.264 112.082 301.245 112.071C301.209 112.05 301.167 112.043 301.126 112.052C301.085 112.061 301.049 112.085 301.026 112.12C300.615 112.678 300.08 113.132 299.462 113.444C298.844 113.757 298.161 113.92 297.468 113.919C297.447 113.92 297.426 113.925 297.407 113.935C297.387 113.944 297.37 113.957 297.356 113.973C297.341 113.988 297.33 114.007 297.323 114.027C297.316 114.047 297.313 114.069 297.314 114.09C297.316 114.132 297.334 114.171 297.364 114.2C297.394 114.229 297.435 114.245 297.477 114.245Z" fill="#263238"/>
<path d="M301.839 105.063C301.913 105.06 301.984 105.035 302.042 104.989C302.109 104.935 302.151 104.857 302.16 104.771C302.17 104.686 302.145 104.601 302.091 104.533C301.779 104.119 301.372 103.786 300.905 103.561C300.438 103.336 299.923 103.225 299.405 103.239C299.318 103.247 299.239 103.288 299.183 103.355C299.127 103.421 299.1 103.507 299.108 103.593C299.115 103.68 299.157 103.759 299.223 103.815C299.29 103.871 299.375 103.898 299.462 103.89C299.871 103.887 300.276 103.979 300.644 104.16C301.011 104.341 301.331 104.605 301.578 104.932C301.608 104.973 301.647 105.006 301.693 105.029C301.738 105.052 301.788 105.063 301.839 105.063Z" fill="#263238"/>
<path d="M290.906 105.16C290.969 105.16 291.03 105.142 291.083 105.109C291.136 105.076 291.179 105.029 291.208 104.973C291.368 104.592 291.618 104.255 291.937 103.991C292.256 103.727 292.634 103.545 293.039 103.459C293.125 103.445 293.202 103.398 293.254 103.328C293.305 103.258 293.328 103.171 293.316 103.085C293.3 103 293.252 102.924 293.183 102.873C293.114 102.821 293.027 102.798 292.941 102.808C292.435 102.917 291.962 103.145 291.561 103.473C291.16 103.802 290.844 104.221 290.638 104.696C290.619 104.735 290.608 104.776 290.605 104.819C290.603 104.862 290.609 104.905 290.623 104.945C290.638 104.985 290.66 105.022 290.689 105.054C290.718 105.085 290.753 105.11 290.792 105.128C290.828 105.146 290.867 105.157 290.906 105.16Z" fill="#263238"/>
<path d="M325.347 136.345C326.886 138.559 328.237 140.724 329.629 142.955C331.021 145.185 332.307 147.432 333.585 149.711C336.176 154.327 338.481 159.098 340.488 163.996C340.748 164.607 340.976 165.258 341.212 165.893L341.57 166.854L341.749 167.342L341.961 168.009C342.48 169.764 342.667 171.599 342.514 173.423C342.192 176.608 341.13 179.674 339.413 182.377C337.918 184.789 336.139 187.014 334.114 189.003C333.145 189.979 332.12 190.883 331.078 191.754C330.022 192.625 328.922 193.44 327.781 194.196L324.468 190.224C325.192 189.41 326.015 188.4 326.747 187.464C327.48 186.528 328.196 185.527 328.872 184.55C330.189 182.673 331.32 180.672 332.25 178.575C333.06 176.83 333.484 174.931 333.495 173.007C333.466 172.273 333.312 171.549 333.039 170.867L332.388 169.418C332.136 168.88 331.908 168.335 331.631 167.79C329.531 163.435 327.105 159.104 324.558 154.823C322.01 150.541 319.34 146.243 316.694 142.132L325.347 136.345Z" fill="#FF8B7B"/>
<path d="M324.167 131.502C330.605 132.894 339.869 152.755 339.869 152.755L322.62 161.172C319.552 156.48 317.003 151.469 315.017 146.227C312.014 137.834 317.272 130.004 324.167 131.502Z" fill="#1CC079"/>
<path d="M318.038 182.58L335.368 233.773C336.041 235.782 335.893 237.975 334.955 239.875C334.017 241.775 332.366 243.228 330.362 243.915L213.87 283.41C211.859 284.085 209.663 283.935 207.762 282.994C205.861 282.053 204.41 280.396 203.728 278.388L186.406 227.212C186.072 226.242 185.934 225.215 185.999 224.192C186.093 222.601 186.657 221.075 187.621 219.806C188.585 218.538 189.905 217.585 191.412 217.069L307.928 177.574C309.437 177.066 311.063 177.02 312.598 177.44C314.133 177.861 315.509 178.729 316.548 179.935C317.215 180.709 317.721 181.609 318.038 182.58Z" fill="#1CC079"/>
<path opacity="0.8" d="M318.038 182.58L335.368 233.773C336.041 235.782 335.893 237.975 334.955 239.875C334.017 241.775 332.366 243.228 330.362 243.915L213.87 283.41C211.859 284.085 209.663 283.935 207.762 282.994C205.861 282.053 204.41 280.396 203.728 278.388L186.406 227.212C186.072 226.242 185.934 225.215 185.999 224.192C186.093 222.601 186.657 221.075 187.621 219.806C188.585 218.538 189.905 217.585 191.412 217.069L307.928 177.574C309.437 177.066 311.063 177.02 312.598 177.44C314.133 177.861 315.509 178.729 316.548 179.935C317.215 180.709 317.721 181.609 318.038 182.58Z" fill="white"/>
<path opacity="0.6" d="M316.515 179.935L268.319 223.036C265.896 225.2 263.061 226.853 259.983 227.895C256.906 228.937 253.65 229.347 250.411 229.1L185.958 224.216C186.052 222.626 186.616 221.099 187.58 219.831C188.544 218.563 189.864 217.61 191.371 217.094L307.887 177.599C309.395 177.086 311.021 177.035 312.557 177.451C314.094 177.867 315.472 178.732 316.515 179.935Z" fill="#1CC079"/>
<path d="M326.21 189.271L318.803 189.32L323.369 196.801C323.369 196.801 328.644 195.523 329.132 192.869L326.21 189.271Z" fill="#FF8B7B"/>
<path d="M314.171 193.707L318.233 199.723L323.369 196.8L318.803 189.32L314.171 193.707Z" fill="#FF8B7B"/>
<path d="M314.969 99.5277C316.597 103.988 311.672 114.318 308.807 114.123C305.941 113.927 305.16 103.191 306.788 100.521C305.241 101.237 290.508 101.262 290.581 99.7068C290.956 94.0576 300.976 92.0064 311.965 94.8228C314.822 94.6844 315.889 95.4659 314.969 99.5277Z" fill="#263238"/>
<path d="M313.544 112.454C313.108 113.186 312.531 113.824 311.846 114.332C311.161 114.839 310.382 115.205 309.555 115.409C307.341 115.946 306.299 113.952 306.999 111.9C307.61 110.053 309.498 107.554 311.696 107.928C313.894 108.302 314.618 110.639 313.544 112.454Z" fill="#FF8B7B"/>
<path d="M281.798 96.8658L315.612 100.773C315.782 100.791 315.953 100.742 316.087 100.635C316.221 100.529 316.308 100.373 316.328 100.203C316.347 100.034 316.298 99.8645 316.193 99.7306C316.088 99.5968 315.935 99.5093 315.766 99.4869L281.945 95.5878C281.776 95.5694 281.606 95.6178 281.472 95.7227C281.338 95.8277 281.251 95.9809 281.228 96.1495C281.21 96.3199 281.26 96.4906 281.366 96.6247C281.473 96.7587 281.628 96.8454 281.798 96.8658Z" fill="#1CC079"/>
<path d="M316.328 100.171L316.914 95.1239C316.908 94.5721 316.695 94.0425 316.319 93.6389C315.942 93.2354 315.429 92.987 314.879 92.9424L294.114 89.0189C292.575 88.7258 291.159 89.5887 291.167 90.8097V97.2728L316.328 100.171Z" fill="#1CC079"/>
<path d="M293.104 95.7832L301.896 96.8007L302.197 94.2366L293.113 93.1947L293.104 95.7832Z" fill="white"/>
</svg>
