<svg width="24" height="24" viewBox="0 0 24 24" fill="none" xmlns="http://www.w3.org/2000/svg">
<path d="M12 12C11.4067 12 10.8266 11.8241 10.3333 11.4944C9.83994 11.1648 9.45542 10.6962 9.22836 10.1481C9.0013 9.59987 8.94189 8.99667 9.05764 8.41473C9.1734 7.83279 9.45912 7.29824 9.87868 6.87868C10.2982 6.45912 10.8328 6.1734 11.4147 6.05764C11.9967 5.94189 12.5999 6.0013 13.1481 6.22836C13.6962 6.45542 14.1648 6.83994 14.4944 7.33329C14.8241 7.82664 15 8.40666 15 9C15 9.79565 14.6839 10.5587 14.1213 11.1213C13.5587 11.6839 12.7956 12 12 12ZM12 8C11.8022 8 11.6089 8.05865 11.4444 8.16853C11.28 8.27841 11.1518 8.43459 11.0761 8.61732C11.0004 8.80004 10.9806 9.00111 11.0192 9.19509C11.0578 9.38907 11.153 9.56725 11.2929 9.70711C11.4327 9.84696 11.6109 9.9422 11.8049 9.98079C11.9989 10.0194 12.2 9.99957 12.3827 9.92388C12.5654 9.84819 12.7216 9.72002 12.8315 9.55557C12.9414 9.39112 13 9.19778 13 9C13 8.73478 12.8946 8.48043 12.7071 8.29289C12.5196 8.10536 12.2652 8 12 8ZM11.29 14.29C11.3851 14.199 11.4972 14.1276 11.62 14.08C11.7397 14.0271 11.8691 13.9998 12 13.9998C12.1309 13.9998 12.2603 14.0271 12.38 14.08C12.5028 14.1276 12.6149 14.199 12.71 14.29L15 16.54C15.1936 16.7336 15.3024 16.9962 15.3024 17.27C15.3024 17.5438 15.1936 17.8064 15 18C14.8064 18.1936 14.5438 18.3024 14.27 18.3024C13.9962 18.3024 13.7336 18.1936 13.54 18L13 17.41V21C13 21.2652 12.8946 21.5196 12.7071 21.7071C12.5196 21.8946 12.2652 22 12 22C11.7348 22 11.4804 21.8946 11.2929 21.7071C11.1054 21.5196 11 21.2652 11 21V17.41L10.46 18C10.2664 18.1936 10.0038 18.3024 9.73 18.3024C9.4562 18.3024 9.19361 18.1936 9 18C8.80639 17.8064 8.69762 17.5438 8.69762 17.27C8.69762 16.9962 8.80639 16.7336 9 16.54L11.29 14.29ZM19 9C19 9.19778 18.9414 9.39112 18.8315 9.55557C18.7216 9.72002 18.5654 9.84819 18.3827 9.92388C18.2 9.99957 17.9989 10.0194 17.8049 9.98079C17.6109 9.9422 17.4327 9.84696 17.2929 9.70711C17.153 9.56725 17.0578 9.38907 17.0192 9.19509C16.9806 9.00111 17.0004 8.80004 17.0761 8.61732C17.1518 8.43459 17.28 8.27841 17.4444 8.16853C17.6089 8.05865 17.8022 8 18 8C18.2652 8 18.5196 8.10536 18.7071 8.29289C18.8946 8.48043 19 8.73478 19 9ZM20 16H17C16.7348 16 16.4804 15.8946 16.2929 15.7071C16.1054 15.5196 16 15.2652 16 15C16 14.7348 16.1054 14.4804 16.2929 14.2929C16.4804 14.1054 16.7348 14 17 14H20C20.2652 14 20.5196 13.8946 20.7071 13.7071C20.8946 13.5196 21 13.2652 21 13V5C21 4.73478 20.8946 4.48043 20.7071 4.29289C20.5196 4.10536 20.2652 4 20 4H4C3.73478 4 3.48043 4.10536 3.29289 4.29289C3.10536 4.48043 3 4.73478 3 5V13C3 13.2652 3.10536 13.5196 3.29289 13.7071C3.48043 13.8946 3.73478 14 4 14H7C7.26522 14 7.51957 14.1054 7.70711 14.2929C7.89464 14.4804 8 14.7348 8 15C8 15.2652 7.89464 15.5196 7.70711 15.7071C7.51957 15.8946 7.26522 16 7 16H4C3.20435 16 2.44129 15.6839 1.87868 15.1213C1.31607 14.5587 1 13.7956 1 13V5C1 4.20435 1.31607 3.44129 1.87868 2.87868C2.44129 2.31607 3.20435 2 4 2H20C20.7956 2 21.5587 2.31607 22.1213 2.87868C22.6839 3.44129 23 4.20435 23 5V13C23 13.7956 22.6839 14.5587 22.1213 15.1213C21.5587 15.6839 20.7956 16 20 16ZM5 9C5 8.80222 5.05865 8.60888 5.16853 8.44443C5.27841 8.27998 5.43459 8.15181 5.61732 8.07612C5.80004 8.00043 6.00111 7.98063 6.19509 8.01921C6.38907 8.0578 6.56725 8.15304 6.70711 8.29289C6.84696 8.43275 6.9422 8.61093 6.98079 8.80491C7.01937 8.99889 6.99957 9.19996 6.92388 9.38268C6.84819 9.56541 6.72002 9.72159 6.55557 9.83147C6.39112 9.94135 6.19778 10 6 10C5.73478 10 5.48043 9.89464 5.29289 9.70711C5.10536 9.51957 5 9.26522 5 9Z" fill="black"/>
</svg>
