<svg width="24" height="25" viewBox="0 0 24 25" fill="none" xmlns="http://www.w3.org/2000/svg">
<path d="M12 12.5C11.4067 12.5 10.8266 12.6759 10.3333 13.0056C9.83994 13.3352 9.45542 13.8038 9.22836 14.3519C9.0013 14.9001 8.94189 15.5033 9.05764 16.0853C9.1734 16.6672 9.45912 17.2018 9.87868 17.6213C10.2982 18.0409 10.8328 18.3266 11.4147 18.4424C11.9967 18.5581 12.5999 18.4987 13.1481 18.2716C13.6962 18.0446 14.1648 17.6601 14.4944 17.1667C14.8241 16.6734 15 16.0933 15 15.5C15 14.7044 14.6839 13.9413 14.1213 13.3787C13.5587 12.8161 12.7956 12.5 12 12.5ZM12 16.5C11.8022 16.5 11.6089 16.4414 11.4444 16.3315C11.28 16.2216 11.1518 16.0654 11.0761 15.8827C11.0004 15.7 10.9806 15.4989 11.0192 15.3049C11.0578 15.1109 11.153 14.9327 11.2929 14.7929C11.4327 14.653 11.6109 14.5578 11.8049 14.5192C11.9989 14.4806 12.2 14.5004 12.3827 14.5761C12.5654 14.6518 12.7216 14.78 12.8315 14.9444C12.9414 15.1089 13 15.3022 13 15.5C13 15.7652 12.8946 16.0196 12.7071 16.2071C12.5196 16.3946 12.2652 16.5 12 16.5ZM11.29 10.21C11.3851 10.301 11.4972 10.3724 11.62 10.42C11.7397 10.4729 11.8691 10.5002 12 10.5002C12.1309 10.5002 12.2603 10.4729 12.38 10.42C12.5028 10.3724 12.6149 10.301 12.71 10.21L15 7.96C15.1936 7.76639 15.3024 7.5038 15.3024 7.23C15.3024 6.9562 15.1936 6.69361 15 6.5C14.8064 6.30639 14.5438 6.19762 14.27 6.19762C13.9962 6.19762 13.7336 6.30639 13.54 6.5L13 7.09V3.5C13 3.23478 12.8946 2.98043 12.7071 2.79289C12.5196 2.60536 12.2652 2.5 12 2.5C11.7348 2.5 11.4804 2.60536 11.2929 2.79289C11.1054 2.98043 11 3.23478 11 3.5V7.09L10.46 6.5C10.2664 6.30639 10.0038 6.19762 9.73 6.19762C9.4562 6.19762 9.19361 6.30639 9 6.5C8.80639 6.69361 8.69762 6.9562 8.69762 7.23C8.69762 7.5038 8.80639 7.76639 9 7.96L11.29 10.21ZM19 15.5C19 15.3022 18.9414 15.1089 18.8315 14.9444C18.7216 14.78 18.5654 14.6518 18.3827 14.5761C18.2 14.5004 17.9989 14.4806 17.8049 14.5192C17.6109 14.5578 17.4327 14.653 17.2929 14.7929C17.153 14.9327 17.0578 15.1109 17.0192 15.3049C16.9806 15.4989 17.0004 15.7 17.0761 15.8827C17.1518 16.0654 17.28 16.2216 17.4444 16.3315C17.6089 16.4414 17.8022 16.5 18 16.5C18.2652 16.5 18.5196 16.3946 18.7071 16.2071C18.8946 16.0196 19 15.7652 19 15.5ZM20 8.5H17C16.7348 8.5 16.4804 8.60536 16.2929 8.79289C16.1054 8.98043 16 9.23478 16 9.5C16 9.76522 16.1054 10.0196 16.2929 10.2071C16.4804 10.3946 16.7348 10.5 17 10.5H20C20.2652 10.5 20.5196 10.6054 20.7071 10.7929C20.8946 10.9804 21 11.2348 21 11.5V19.5C21 19.7652 20.8946 20.0196 20.7071 20.2071C20.5196 20.3946 20.2652 20.5 20 20.5H4C3.73478 20.5 3.48043 20.3946 3.29289 20.2071C3.10536 20.0196 3 19.7652 3 19.5V11.5C3 11.2348 3.10536 10.9804 3.29289 10.7929C3.48043 10.6054 3.73478 10.5 4 10.5H7C7.26522 10.5 7.51957 10.3946 7.70711 10.2071C7.89464 10.0196 8 9.76522 8 9.5C8 9.23478 7.89464 8.98043 7.70711 8.79289C7.51957 8.60536 7.26522 8.5 7 8.5H4C3.20435 8.5 2.44129 8.81607 1.87868 9.37868C1.31607 9.94129 1 10.7044 1 11.5V19.5C1 20.2956 1.31607 21.0587 1.87868 21.6213C2.44129 22.1839 3.20435 22.5 4 22.5H20C20.7956 22.5 21.5587 22.1839 22.1213 21.6213C22.6839 21.0587 23 20.2956 23 19.5V11.5C23 10.7044 22.6839 9.94129 22.1213 9.37868C21.5587 8.81607 20.7956 8.5 20 8.5ZM5 15.5C5 15.6978 5.05865 15.8911 5.16853 16.0556C5.27841 16.22 5.43459 16.3482 5.61732 16.4239C5.80004 16.4996 6.00111 16.5194 6.19509 16.4808C6.38907 16.4422 6.56725 16.347 6.70711 16.2071C6.84696 16.0673 6.9422 15.8891 6.98079 15.6951C7.01937 15.5011 6.99957 15.3 6.92388 15.1173C6.84819 14.9346 6.72002 14.7784 6.55557 14.6685C6.39112 14.5586 6.19778 14.5 6 14.5C5.73478 14.5 5.48043 14.6054 5.29289 14.7929C5.10536 14.9804 5 15.2348 5 15.5Z" fill="white"/>
</svg>
